<svg width="440" height="440" xmlns="http://www.w3.org/2000/svg" xmlns:xlink="http://www.w3.org/1999/xlink" overflow="hidden"><defs><clipPath id="clip0"><rect x="1024" y="-68" width="440" height="440"/></clipPath></defs><g clip-path="url(#clip0)" transform="translate(-1024 68)"><path d="M1356.47 28.25C1348.87 4.10409 1323.14-9.31179 1298.99-1.71491 1284.71 2.77905 1273.52 13.967 1269.03 28.25L1088.17 28.25 1088.17 55.75 1269.03 55.75C1276.63 79.8959 1302.36 93.3118 1326.51 85.7149 1340.79 81.221 1351.98 70.0331 1356.47 55.75L1399.83 55.75 1399.83 28.25ZM1312.75 60.3333C1302.62 60.3333 1294.42 52.125 1294.42 42 1294.42 31.875 1302.62 23.6667 1312.75 23.6667 1322.88 23.6667 1331.08 31.875 1331.08 42 1331.08 52.125 1322.88 60.3333 1312.75 60.3333Z" fill="#FF9900"/><path d="M1294.42 216.167C1274.41 216.192 1256.72 229.171 1250.7 248.25L1088.17 248.25 1088.17 275.75 1250.7 275.75C1258.29 299.896 1284.03 313.312 1308.17 305.715 1322.46 301.221 1333.64 290.033 1338.14 275.75L1399.83 275.75 1399.83 248.25 1338.14 248.25C1332.11 229.171 1314.42 216.192 1294.42 216.167ZM1294.42 280.333C1284.29 280.333 1276.08 272.125 1276.08 262 1276.08 251.875 1284.29 243.667 1294.42 243.667 1304.54 243.667 1312.75 251.875 1312.75 262 1312.75 272.125 1304.54 280.333 1294.42 280.333Z" fill="#FF9900"/><path d="M1179.83 106.167C1159.83 106.192 1142.14 119.171 1136.11 138.25L1088.17 138.25 1088.17 165.75 1136.11 165.75C1143.71 189.896 1169.44 203.312 1193.59 195.715 1207.87 191.221 1219.06 180.033 1223.55 165.75L1399.83 165.75 1399.83 138.25 1223.55 138.25C1217.53 119.171 1199.84 106.192 1179.83 106.167ZM1179.83 170.333C1169.71 170.333 1161.5 162.125 1161.5 152 1161.5 141.875 1169.71 133.667 1179.83 133.667 1189.96 133.667 1198.17 141.875 1198.17 152 1198.17 162.125 1189.96 170.333 1179.83 170.333Z" fill="#FF9900"/></g></svg>