<svg width="444" height="443" xmlns="http://www.w3.org/2000/svg" xmlns:xlink="http://www.w3.org/1999/xlink" overflow="hidden"><defs><clipPath id="clip0"><rect x="1158" y="142" width="444" height="443"/></clipPath></defs><g clip-path="url(#clip0)" transform="translate(-1158 -142)"><path d="M140.745 169.771C108.888 169.771 83.0625 195.596 83.0625 227.453 83.0625 259.31 108.888 285.135 140.745 285.135 172.602 285.135 198.427 259.31 198.427 227.453 198.427 195.596 172.602 169.771 140.745 169.771ZM140.745 192.105C149.69 192.08 156.963 199.311 156.988 208.256 157.014 217.202 149.782 224.474 140.837 224.499 131.892 224.525 124.619 217.294 124.594 208.348 124.594 208.333 124.594 208.318 124.594 208.302 124.594 199.375 131.817 192.13 140.745 192.105ZM173.047 257.032 108.443 257.032 108.443 244.573C108.504 242.046 109.688 239.678 111.673 238.113 116.47 234.791 121.789 232.296 127.409 230.729 131.747 229.484 136.231 228.816 140.745 228.745 145.263 228.758 149.755 229.427 154.081 230.729 159.804 232.216 165.171 234.836 169.863 238.436 171.848 240.001 173.032 242.369 173.093 244.896Z" fill="#7F7F7F" transform="matrix(1.00226 0 0 1 1158 142)"/><path d="M262.57 154.681 206.087 188.552C209.269 193.895 211.809 199.595 213.655 205.534L271.845 170.74C267.952 165.891 264.824 160.475 262.57 154.681Z" fill="#7F7F7F" transform="matrix(1.00226 0 0 1 1158 142)"/><path d="M359.938 132.854C359.938 155.791 341.343 174.385 318.406 174.385 295.469 174.385 276.875 155.791 276.875 132.854 276.875 109.917 295.469 91.3226 318.406 91.3226 341.343 91.3226 359.938 109.917 359.938 132.854Z" fill="#7F7F7F" transform="matrix(1.00226 0 0 1 1158 142)"/><path d="M271.845 284.258 213.655 249.188C211.809 255.126 209.269 260.826 206.087 266.169L262.57 300.225C264.837 294.464 267.964 289.081 271.845 284.258Z" fill="#7F7F7F" transform="matrix(1.00226 0 0 1 1158 142)"/><path d="M359.938 322.052C359.938 344.989 341.343 363.583 318.406 363.583 295.469 363.583 276.875 344.989 276.875 322.052 276.875 299.115 295.469 280.521 318.406 280.521 341.343 280.521 359.938 299.115 359.938 322.052Z" fill="#7F7F7F" transform="matrix(1.00226 0 0 1 1158 142)"/></g></svg>