<svg width="445" height="445" xmlns="http://www.w3.org/2000/svg" xmlns:xlink="http://www.w3.org/1999/xlink" overflow="hidden"><defs><clipPath id="clip0"><rect x="890" y="50" width="445" height="445"/></clipPath></defs><g clip-path="url(#clip0)" transform="translate(-890 -50)"><path d="M1137.99 418.516C1168.12 381.432 1201.5 334.615 1204.74 281.771L1260.37 281.771C1256.2 350.839 1204.74 406.927 1137.99 418.516ZM964.63 281.771 1020.26 281.771C1023.96 334.615 1056.88 381.432 1087.01 418.516 1020.26 406.927 968.802 350.839 964.63 281.771ZM1087.01 126.484C1056.88 163.568 1023.5 210.385 1020.26 263.229L964.63 263.229C968.802 194.161 1020.26 138.073 1087.01 126.484ZM1121.77 281.771 1186.2 281.771C1182.49 329.516 1151.44 372.625 1121.77 409.245L1121.77 281.771ZM1103.23 281.771 1103.23 409.245C1073.56 372.625 1042.51 329.516 1038.8 281.771L1103.23 281.771ZM1121.77 135.755C1151.44 172.375 1182.49 215.021 1186.2 263.229L1121.77 263.229 1121.77 135.755ZM1103.23 263.229 1038.8 263.229C1042.51 215.484 1073.56 172.375 1103.23 135.755L1103.23 263.229ZM1260.37 263.229 1204.74 263.229C1201.5 210.385 1168.12 163.568 1137.99 126.484 1204.74 138.073 1256.2 194.161 1260.37 263.229ZM1112.5 96.3542C1015.16 96.3542 936.354 175.156 936.354 272.5 936.354 369.844 1015.16 448.646 1112.5 448.646 1209.84 448.646 1288.65 369.844 1288.65 272.5 1288.65 175.156 1209.84 96.3542 1112.5 96.3542Z" fill="#7F7F7F"/></g></svg>