<svg width="445" height="445" xmlns="http://www.w3.org/2000/svg" xmlns:xlink="http://www.w3.org/1999/xlink" overflow="hidden"><defs><clipPath id="clip0"><rect x="-395" y="47" width="445" height="445"/></clipPath></defs><g clip-path="url(#clip0)" transform="translate(395 -47)"><path d="M-288.385 111.896-56.6146 111.896-56.6146 427.104-288.385 427.104-288.385 111.896ZM-316.198 454.917-28.8021 454.917-28.8021 84.0833-316.198 84.0833-316.198 454.917Z" fill="#7F7F7F"/><path d="M-163.229 153.615-84.4271 153.615-84.4271 172.156-163.229 172.156Z" fill="#7F7F7F"/><path d="M-163.229 227.781-84.4271 227.781-84.4271 246.323-163.229 246.323Z" fill="#7F7F7F"/><path d="M-163.229 376.115-84.4271 376.115-84.4271 394.656-163.229 394.656Z" fill="#7F7F7F"/><path d="M-163.229 301.948-84.4271 301.948-84.4271 320.49-163.229 320.49Z" fill="#7F7F7F"/><path d="M-191.969 143.417-204.948 130.438-235.542 161.031-247.594 148.979-260.573 161.958-235.542 186.99Z" fill="#7F7F7F"/><path d="M-191.969 217.583-204.948 204.604-235.542 235.198-247.594 223.146-260.573 236.125-235.542 261.156Z" fill="#7F7F7F"/><path d="M-191.969 291.75-204.948 278.771-235.542 309.365-247.594 297.312-260.573 310.292-235.542 335.323Z" fill="#7F7F7F"/><path d="M-191.969 364.99-204.948 352.01-235.542 382.604-247.594 370.552-260.573 383.531-235.542 408.562Z" fill="#7F7F7F"/></g></svg>