<svg width="444" height="444" xmlns="http://www.w3.org/2000/svg" xmlns:xlink="http://www.w3.org/1999/xlink" overflow="hidden"><defs><clipPath id="clip0"><rect x="180" y="32" width="444" height="444"/></clipPath></defs><g clip-path="url(#clip0)" transform="translate(-180 -32)"><path d="M226.25 189.25 226.25 92.125 257.237 123.113C288.225 95.3625 329.388 78.25 374.25 78.25 471.375 78.25 550 156.875 550 254 550 351.125 471.375 429.75 374.25 429.75 325.688 429.75 281.75 409.862 249.837 378.413L289.15 339.1C310.888 360.837 340.95 374.25 374.25 374.25 440.387 374.25 494.5 320.137 494.5 254 494.5 187.863 440.387 133.75 374.25 133.75 344.65 133.75 317.362 144.387 296.55 162.425L323.375 189.25 226.25 189.25Z" fill="#7F7F7F"/></g></svg>