<svg width="444" height="444" xmlns="http://www.w3.org/2000/svg" xmlns:xlink="http://www.w3.org/1999/xlink" overflow="hidden"><defs><clipPath id="clip0"><rect x="446" y="46" width="444" height="444"/></clipPath></defs><g clip-path="url(#clip0)" transform="translate(-446 -46)"><path d="M552.375 110.75 783.625 110.75 783.625 425.25 552.375 425.25 552.375 110.75ZM524.625 453 811.375 453 811.375 83 524.625 83 524.625 453Z" stroke="#FF9900" stroke-width="4.62499" fill="#FF9900"/><path d="M677.25 152.375 755.875 152.375 755.875 170.875 677.25 170.875Z" stroke="#FF9900" stroke-width="4.62499" fill="#FF9900"/><path d="M677.25 226.375 755.875 226.375 755.875 244.875 677.25 244.875Z" stroke="#FF9900" stroke-width="4.62499" fill="#FF9900"/><path d="M677.25 374.375 755.875 374.375 755.875 392.875 677.25 392.875Z" stroke="#FF9900" stroke-width="4.62499" fill="#FF9900"/><path d="M677.25 300.375 755.875 300.375 755.875 318.875 677.25 318.875Z" stroke="#FF9900" stroke-width="4.62499" fill="#FF9900"/><path d="M648.575 142.2 635.625 129.25 605.1 159.775 593.075 147.75 580.125 160.7 605.1 185.675Z" stroke="#FF9900" stroke-width="4.62499" fill="#FF9900"/><path d="M648.575 216.2 635.625 203.25 605.1 233.775 593.075 221.75 580.125 234.7 605.1 259.675Z" stroke="#FF9900" stroke-width="4.62499" fill="#FF9900"/><path d="M648.575 290.2 635.625 277.25 605.1 307.775 593.075 295.75 580.125 308.7 605.1 333.675Z" stroke="#FF9900" stroke-width="4.62499" fill="#FF9900"/><path d="M648.575 363.275 635.625 350.325 605.1 380.85 593.075 368.825 580.125 381.775 605.1 406.75Z" stroke="#FF9900" stroke-width="4.62499" fill="#FF9900"/></g></svg>