<svg width="444" height="444" xmlns="http://www.w3.org/2000/svg" xmlns:xlink="http://www.w3.org/1999/xlink" overflow="hidden"><defs><clipPath id="clip0"><rect x="739" y="268" width="444" height="444"/></clipPath></defs><g clip-path="url(#clip0)" transform="translate(-739 -268)"><path d="M1099.75 360.5 1021.12 360.5 1021.12 337.375C1021.12 319.337 1006.79 305 988.75 305L933.25 305C915.213 305 900.875 319.337 900.875 337.375L900.875 360.5 822.25 360.5C812.075 360.5 803.75 368.825 803.75 379L803.75 397.5 1118.25 397.5 1118.25 379C1118.25 368.825 1109.93 360.5 1099.75 360.5ZM928.625 337.375C928.625 334.6 930.475 332.75 933.25 332.75L988.75 332.75C991.525 332.75 993.375 334.6 993.375 337.375L993.375 360.5 928.625 360.5 928.625 337.375Z" fill="#7F7F7F"/><path d="M831.5 656.5C831.5 666.675 839.825 675 850 675L1072 675C1082.18 675 1090.5 666.675 1090.5 656.5L1090.5 416 831.5 416 831.5 656.5ZM1021.12 443.75 1048.88 443.75 1048.88 647.25 1021.12 647.25 1021.12 443.75ZM947.125 443.75 974.875 443.75 974.875 647.25 947.125 647.25 947.125 443.75ZM873.125 443.75 900.875 443.75 900.875 647.25 873.125 647.25 873.125 443.75Z" fill="#7F7F7F"/></g></svg>