<svg width="444" height="444" xmlns="http://www.w3.org/2000/svg" xmlns:xlink="http://www.w3.org/1999/xlink" overflow="hidden"><defs><clipPath id="clip0"><rect x="1056" y="11" width="444" height="444"/></clipPath></defs><g clip-path="url(#clip0)" transform="translate(-1056 -11)"><path d="M1190.12 131.25C1197.99 131.25 1204 125.238 1204 117.375L1204 89.625C1204 81.7625 1197.99 75.75 1190.12 75.75 1182.26 75.75 1176.25 81.7625 1176.25 89.625L1176.25 117.375C1176.25 125.238 1182.26 131.25 1190.12 131.25Z" fill="#FF9900"/><path d="M1148.5 325.5 1222.5 325.5 1222.5 362.5 1148.5 362.5 1148.5 325.5ZM1148.5 270 1222.5 270 1222.5 307 1148.5 307 1148.5 270ZM1148.5 214.5 1222.5 214.5 1222.5 251.5 1148.5 251.5 1148.5 214.5ZM1315 214.5 1315 251.5 1241 251.5 1241 214.5 1315 214.5ZM1407.5 214.5 1407.5 251.5 1333.5 251.5 1333.5 214.5 1407.5 214.5ZM1407.5 307 1333.5 307 1333.5 270 1407.5 270 1407.5 307ZM1407.5 362.5 1333.5 362.5 1333.5 325.5 1407.5 325.5 1407.5 362.5ZM1241 307 1241 270 1315 270 1315 307 1241 307ZM1241 362.5 1241 325.5 1315 325.5 1315 362.5 1241 362.5ZM1120.75 390.25 1435.25 390.25 1435.25 186.75 1120.75 186.75 1120.75 390.25Z" fill="#FF9900"/><path d="M1365.88 131.25C1373.74 131.25 1379.75 125.238 1379.75 117.375L1379.75 89.625C1379.75 81.7625 1373.74 75.75 1365.88 75.75 1358.01 75.75 1352 81.7625 1352 89.625L1352 117.375C1352 125.238 1358.01 131.25 1365.88 131.25Z" fill="#FF9900"/><path d="M1398.25 103.5 1398.25 117.375C1398.25 135.413 1383.91 149.75 1365.88 149.75 1347.84 149.75 1333.5 135.413 1333.5 117.375L1333.5 103.5 1222.5 103.5 1222.5 117.375C1222.5 135.413 1208.16 149.75 1190.12 149.75 1172.09 149.75 1157.75 135.413 1157.75 117.375L1157.75 103.5 1120.75 103.5 1120.75 168.25 1435.25 168.25 1435.25 103.5 1398.25 103.5Z" fill="#FF9900"/></g></svg>