<svg width="444" height="444" xmlns="http://www.w3.org/2000/svg" xmlns:xlink="http://www.w3.org/1999/xlink" overflow="hidden"><defs><clipPath id="clip0"><rect x="688" y="0" width="444" height="444"/></clipPath></defs><g clip-path="url(#clip0)" transform="translate(-688 0)"><path d="M1076.5 134.125 1076.5 118.77C1076.51 116.701 1076.08 114.653 1075.25 112.757L1048.06 50.875 771.944 50.875 744.749 112.757C743.919 114.653 743.494 116.701 743.5 118.77L743.5 134.125C743.5 144.342 751.783 152.625 762 152.625L762 263.625 743.5 263.625 743.5 291.375 762 291.375 762 388.5 1058 388.5 1058 291.375 1076.5 291.375 1076.5 263.625 1058 263.625 1058 152.625C1068.22 152.625 1076.5 144.342 1076.5 134.125ZM1021.92 78.625 1039.5 115.625 1039.5 134.125C1039.5 144.342 1031.22 152.625 1021 152.625 1010.78 152.625 1002.5 144.342 1002.5 134.125L1002.5 115.625 984.925 78.625ZM954.4 78.625 965.5 115.625 965.5 134.125C965.5 144.342 957.217 152.625 947 152.625 936.783 152.625 928.5 144.342 928.5 134.125L928.5 115.625 922.025 78.625ZM854.5 115.625 865.6 78.625 897.975 78.625 891.5 115.625 891.5 134.125C891.5 144.342 883.217 152.625 873 152.625 862.783 152.625 854.5 144.342 854.5 134.125ZM780.5 115.625 798.075 78.625 835.075 78.625 817.5 115.625 817.5 134.125C817.5 144.342 809.217 152.625 799 152.625 788.783 152.625 780.5 144.342 780.5 134.125ZM789.75 263.625 789.75 185 1030.25 185 1030.25 263.625Z" fill="#FF9900"/></g></svg>