<svg width="444" height="444" xmlns="http://www.w3.org/2000/svg" xmlns:xlink="http://www.w3.org/1999/xlink" overflow="hidden"><defs><clipPath id="clip0"><rect x="1001" y="77" width="444" height="444"/></clipPath></defs><g clip-path="url(#clip0)" transform="translate(-1001 -77)"><path d="M1254.28 332.763C1259.49 337.823 1259.61 346.148 1254.55 351.356 1254.46 351.446 1254.37 351.535 1254.28 351.623L1231.7 359.06 1227.72 355.078 1235.16 332.499C1240.55 327.388 1249.03 327.505 1254.28 332.763ZM1356.31 196.468 1225.89 327.185 1209.12 377.657 1259.86 360.919 1390.31 230.494Z" fill="#FF9900"/><path d="M1418.72 186.922 1399.86 168.062C1395.77 163.88 1389.07 163.803 1384.89 167.89 1384.83 167.946 1384.77 168.004 1384.72 168.062L1366.12 186.659 1399.86 220.375 1418.45 201.783C1422.62 198.113 1423.03 191.756 1419.36 187.586 1419.16 187.355 1418.94 187.133 1418.72 186.922Z" fill="#FF9900"/><path d="M1121.25 377.625 1194.52 377.625 1200.65 359.125 1121.25 359.125 1121.25 377.625Z" fill="#FF9900"/><path d="M1121.25 266.625 1266.7 266.625 1285.16 248.125 1121.25 248.125 1121.25 266.625Z" fill="#FF9900"/><path d="M1324.75 315.65 1324.75 456.25 1093.5 456.25 1093.5 169.5 1144.38 169.5 1144.38 197.25 1273.88 197.25 1273.88 169.5 1324.75 169.5 1324.75 208.452 1346.49 186.659 1346.49 186.659 1347.28 185.868 1352.5 180.646 1352.5 160.25C1352.5 150.033 1344.22 141.75 1334 141.75L1255.38 141.75 1255.38 132.5C1255.38 122.283 1247.09 114 1236.88 114L1181.38 114C1171.16 114 1162.88 122.283 1162.88 132.5L1162.88 141.75 1084.25 141.75C1074.03 141.75 1065.75 150.033 1065.75 160.25L1065.75 465.5C1065.75 475.717 1074.03 484 1084.25 484L1334 484C1344.22 484 1352.5 475.717 1352.5 465.5L1352.5 287.9ZM1199.25 136.496C1201.86 133.878 1205.43 132.435 1209.12 132.5 1216.79 132.5 1223 138.712 1223 146.375 1223 154.038 1216.79 160.25 1209.12 160.25 1201.46 160.25 1195.25 154.038 1195.25 146.375 1195.19 142.676 1196.63 139.11 1199.25 136.496Z" fill="#FF9900"/><path d="M1121.25 322.125 1211.2 322.125 1229.66 303.625 1121.25 303.625 1121.25 322.125Z" fill="#FF9900"/></g></svg>